<svg width="483" height="490" xmlns="http://www.w3.org/2000/svg" xmlns:xlink="http://www.w3.org/1999/xlink" overflow="hidden"><defs><clipPath id="clip0"><rect x="43" y="106" width="483" height="490"/></clipPath></defs><g clip-path="url(#clip0)" transform="translate(-43 -106)"><path d="M260.448 201.11 313.378 201.293 313.836 333.935 260.907 333.752ZM331.515 111.51 345.951 115.653 346.95 115.811C357.999 118.338 367.667 121.777 374.678 125.459L374.936 125.632 377.536 126.445C464.227 163.837 525.266 250.884 525.616 352.093 526.024 470.17 443.692 568.401 333.869 590.805L314.734 593.699 314.736 594.233 311.284 594.221 309.935 594.425C301.83 595.231 293.605 595.63 285.28 595.602L261.308 594.293 261.113 538.115 261.613 538.19 261.203 419.521 314.133 419.704 314.54 537.496 324.673 536.046C414.149 518.781 481.24 443.021 480.925 351.938 480.655 273.868 430.94 206.713 360.318 177.857 360.293 177.849 337.927 171.282 332.317 169.633L331.842 169.494 331.673 120.712 331.547 120.676ZM238.181 110.745 239.581 169.382C237.226 170.202 209.708 176.509 207.353 177.329 136.929 205.699 87.6764 272.512 87.9462 350.582 88.0249 373.353 92.31 395.195 100.093 415.429L104.487 425.503 127.04 398.047 157.637 496.712 53.4756 487.603 72.0648 464.973 67.4046 456.442C52.0524 424.344 43.3868 388.382 43.2557 350.428 42.8766 240.785 113.84 148.255 211.91 117.657ZM283.591 106.919C291.916 106.948 300.144 107.404 308.255 108.266L314.059 109.183 314.253 165.378 303.877 163.824C297.27 163.158 290.566 162.805 283.784 162.782 277.002 162.758 270.301 163.065 263.698 163.685L260.321 164.168 260.127 108.039Z" fill="#FFFFFF" fill-rule="evenodd"/><path d="M324.433 202.181 341.752 208.31C358.218 216.34 372.291 227.819 382.752 241.656L384.504 244.538 340.999 292.829 340.176 291.072C337.228 286.449 332.962 282.286 327.69 278.789L324.592 277.094ZM249.372 201.474 249.532 276.469 245.292 278.789C237.384 284.034 231.739 290.779 229.41 298.325L228.592 303.707 228.484 303.707 228.484 346.457 228.983 346.457 228.947 346.563 346.732 346.813 346.848 401.087 226.067 400.831 227.101 583.49 211.831 579.206C204.235 576.632 196.798 573.666 189.541 570.328L170.869 560.554 170.549 313.638 170.571 313.638 170.542 299.748 170.553 299.748 170.519 299.282C170.427 256.256 199.585 219.403 241.218 203.723Z" fill="#ED7D31" fill-rule="evenodd"/></g></svg>